<svg width="13" height="14" viewBox="0 0 13 14" fill="none" xmlns="http://www.w3.org/2000/svg">
<path d="M6.5 0.533936C7.99184 0.533936 9.42258 1.13765 10.4775 2.21225C11.5324 3.28686 12.125 4.74435 12.125 6.26408C12.125 8.63635 10.35 11.122 6.875 13.7769C6.76682 13.8596 6.63523 13.9043 6.5 13.9043C6.36477 13.9043 6.23318 13.8596 6.125 13.7769C2.65 11.122 0.875 8.63635 0.875 6.26408C0.875 4.74435 1.46763 3.28686 2.52252 2.21225C3.57742 1.13765 5.00816 0.533936 6.5 0.533936V0.533936ZM6.5 4.35403C6.00272 4.35403 5.52581 4.55527 5.17417 4.91347C4.82254 5.27167 4.625 5.7575 4.625 6.26408C4.625 6.77065 4.82254 7.25648 5.17417 7.61468C5.52581 7.97289 6.00272 8.17412 6.5 8.17412C6.99728 8.17412 7.47419 7.97289 7.82583 7.61468C8.17746 7.25648 8.375 6.77065 8.375 6.26408C8.375 5.7575 8.17746 5.27167 7.82583 4.91347C7.47419 4.55527 6.99728 4.35403 6.5 4.35403Z" fill="black"/>
</svg>
