<svg width="20" height="21" viewBox="0 0 20 21" fill="none" xmlns="http://www.w3.org/2000/svg">
<path d="M11.6029 10.5495L9.3569 9.48191C9.1609 9.38921 8.9999 9.49312 8.9999 9.71417V11.7251C8.9999 11.9461 9.1609 12.05 9.3569 11.9573L11.6019 10.8897C11.7989 10.796 11.7989 10.6432 11.6029 10.5495ZM9.9999 0.940186C4.6979 0.940186 0.399902 5.31852 0.399902 10.7196C0.399902 16.1207 4.6979 20.4991 9.9999 20.4991C15.3019 20.4991 19.5999 16.1207 19.5999 10.7196C19.5999 5.31852 15.3019 0.940186 9.9999 0.940186ZM9.9999 14.6925C5.0859 14.6925 4.9999 14.2412 4.9999 10.7196C4.9999 7.19801 5.0859 6.74673 9.9999 6.74673C14.9139 6.74673 14.9999 7.19801 14.9999 10.7196C14.9999 14.2412 14.9139 14.6925 9.9999 14.6925Z" fill="black"/>
</svg>
