<svg width="18" height="19" viewBox="0 0 18 19" fill="none" xmlns="http://www.w3.org/2000/svg">
<path d="M9 0.787354C4.16797 0.787354 0.25 4.77856 0.25 9.7009C0.25 14.6233 4.16797 18.6145 9 18.6145C13.832 18.6145 17.75 14.6233 17.75 9.7009C17.75 4.77856 13.832 0.787354 9 0.787354ZM13.2051 7.50634C13.2109 7.59985 13.2109 7.69735 13.2109 7.79285C13.2109 10.7136 11.0273 14.0781 7.03711 14.0781C5.80664 14.0781 4.66602 13.714 3.70508 13.0873C3.88086 13.1072 4.04883 13.1151 4.22852 13.1151C5.24414 13.1151 6.17773 12.7649 6.92188 12.172C5.96875 12.1521 5.16797 11.5154 4.89453 10.64C5.22852 10.6898 5.5293 10.6898 5.87305 10.6002C5.38228 10.4986 4.94116 10.2271 4.62464 9.83179C4.30812 9.43645 4.13572 8.94167 4.13672 8.43152V8.40366C4.42383 8.5688 4.76172 8.67028 5.11523 8.6842C4.81805 8.48244 4.57433 8.2091 4.40569 7.88841C4.23704 7.56772 4.14868 7.20959 4.14844 6.84578C4.14844 6.43393 4.25391 6.05789 4.44336 5.73159C4.98809 6.4147 5.66783 6.9734 6.43841 7.37138C7.20898 7.76935 8.05314 7.99769 8.91602 8.04155C8.60938 6.53938 9.71094 5.32371 11.0352 5.32371C11.6602 5.32371 12.2227 5.59032 12.6191 6.02009C13.1094 5.92657 13.5781 5.73955 13.9961 5.48885C13.834 6.00019 13.4941 6.43194 13.043 6.70452C13.4805 6.65677 13.9023 6.53341 14.293 6.36031C13.998 6.80201 13.6289 7.19397 13.2051 7.50634Z" fill="black"/>
</svg>
