<svg width="20" height="21" viewBox="0 0 20 21" fill="none" xmlns="http://www.w3.org/2000/svg">
<path d="M12.9999 10.7196C12.9999 11.5301 12.6838 12.3075 12.1212 12.8806C11.5586 13.4537 10.7956 13.7757 9.9999 13.7757C9.20425 13.7757 8.44119 13.4537 7.87858 12.8806C7.31597 12.3075 6.9999 11.5301 6.9999 10.7196C6.9999 10.5454 7.0179 10.3753 7.0489 10.2103H5.9999V14.282C5.9999 14.5652 6.2249 14.7944 6.5029 14.7944H13.4979C13.6311 14.7941 13.7588 14.74 13.8529 14.644C13.947 14.5479 13.9999 14.4177 13.9999 14.282V10.2103H12.9509C12.9819 10.3753 12.9999 10.5454 12.9999 10.7196ZM9.9999 12.757C10.2626 12.7569 10.5227 12.7042 10.7654 12.6017C11.0081 12.4992 11.2286 12.349 11.4143 12.1598C11.6 11.9705 11.7473 11.7458 11.8478 11.4985C11.9483 11.2512 12 10.9862 11.9999 10.7186C11.9998 10.451 11.948 10.186 11.8474 9.93878C11.7468 9.69155 11.5994 9.46694 11.4136 9.27775C11.2278 9.08856 11.0072 8.9385 10.7645 8.83615C10.5218 8.7338 10.2616 8.68115 9.9989 8.68122C9.46834 8.68136 8.95955 8.89619 8.58448 9.27847C8.20941 9.66074 7.99877 10.1791 7.9989 10.7196C7.99903 11.2601 8.20993 11.7784 8.58519 12.1605C8.96045 12.5426 9.46934 12.7571 9.9999 12.757ZM12.3999 8.58037H13.5989C13.6786 8.58037 13.755 8.54821 13.8114 8.49092C13.8678 8.43364 13.8996 8.35591 13.8999 8.27476V7.05335C13.8999 6.97203 13.8682 6.89404 13.8117 6.83654C13.7553 6.77903 13.6787 6.74673 13.5989 6.74673H12.3999C12.3201 6.74673 12.2435 6.77903 12.1871 6.83654C12.1306 6.89404 12.0989 6.97203 12.0989 7.05335V8.27476C12.0999 8.44285 12.2349 8.58037 12.3999 8.58037ZM9.9999 0.940186C7.45382 0.940186 5.01203 1.97052 3.21168 3.80452C1.41133 5.63852 0.399902 8.12596 0.399902 10.7196C0.399902 13.3133 1.41133 15.8007 3.21168 17.6347C5.01203 19.4687 7.45382 20.4991 9.9999 20.4991C11.2606 20.4991 12.5089 20.2461 13.6737 19.7546C14.8384 19.2632 15.8967 18.5428 16.7881 17.6347C17.6796 16.7266 18.3867 15.6485 18.8691 14.4621C19.3516 13.2756 19.5999 12.0039 19.5999 10.7196C19.5999 9.43537 19.3516 8.16369 18.8691 6.97719C18.3867 5.7907 17.6796 4.71262 16.7881 3.80452C15.8967 2.89641 14.8384 2.17606 13.6737 1.6846C12.5089 1.19314 11.2606 0.940186 9.9999 0.940186ZM14.9999 14.6813C14.9999 15.3037 14.4999 15.8131 13.8889 15.8131H6.1109C5.4999 15.8131 4.9999 15.3037 4.9999 14.6813V6.75793C4.9999 6.13551 5.4999 5.62617 6.1109 5.62617H13.8889C14.4999 5.62617 14.9999 6.13551 14.9999 6.75793V14.6813Z" fill="black"/>
</svg>
